<svg height="512pt" preserveAspectRatio="xMidYMid meet" viewBox="0 0 512 512" width="512pt" xmlns="http://www.w3.org/2000/svg"><path d="m160 2801v-1841h440 440v-240-240h1520 1520v240 240h440 440v1841 1841l-72-7c-162-14-284-48-423-116-215-105-399-287-505-498-40-81-96-254-105-323-3-29-8-66-10-83-2-16-5-64-6-105l-2-75-8 75c-34 292-169 562-386 771-176 170-381 278-624 330-147 32-371 32-518 0-542-115-939-549-1010-1101l-8-65-2 70c-1 39-4 84-6 100-2 17-7 54-10 83-4 29-22 100-40 156-61 187-136 313-266 444-203 205-431 311-726 337l-73 7zm2597 1500c98-21 219-68 310-123 121-73 284-252 353-388 51-101 100-289 100-386v-44h-961-962l7 83c24 300 196 580 457 739 203 123 460 167 696 119zm-357-2141v-880h-400-400v880 880h400 400zm1120 0v-880h-400-400v880 880h400 400z" transform="matrix(.1 0 0 -.1 0 512)"/></svg>